<svg version="1.1" id="Layer_1" xmlns="http://www.w3.org/2000/svg" xmlns:xlink="http://www.w3.org/1999/xlink" x="0px" y="0px" width="300px" height="75px" viewBox="0 0 300 75" enable-background="new 0 0 300 75" xml:space="preserve"><g><path fill="#FFFFFF" d="M6.646,62.376C25.268,44.221,43.898,26.071,62.494,7.887c1.096-1.072,2.181-1.614,3.749-1.554c3.061,0.117,6.129,0.035,9.448,0.035c0,3.606,0.048,7.118-0.05,10.626c-0.015,0.545-0.626,1.148-1.086,1.597c-18.392,17.962-36.79,35.917-55.236,53.824c-0.663,0.644-1.81,1.047-2.753,1.093c-3.301,0.161-6.612,0.117-9.919,0.149C6.646,69.896,6.646,66.137,6.646,62.376z"></path><path fill="#FFFFFF" d="M6.646,5.974c5.38-0.917,9.599,0.89,12.708,5.369c0.334,0.481,0.851,0.834,1.516,1.468c1.627-1.659,3.328-3.207,4.797-4.95c1.289-1.529,2.768-2.066,4.704-1.89c1.472,0.134,2.964,0.026,4.695,0.026c0,5.502,0.011,10.806-0.023,16.11c-0.002,0.396-0.238,0.884-0.524,1.171c-4.498,4.506-9.022,8.986-13.683,13.613c-4.777-4.787-9.483-9.505-14.189-14.222C6.646,17.104,6.646,11.539,6.646,5.974z"></path><path fill="#FFFFFF" d="M213.758,74.107c-1.705-0.873-3.598-1.504-5.078-2.662c-4.932-3.855-5.971-12.149-2.388-17.615c3.267-4.982,10.627-6.639,16.31-3.67c4.476,2.339,6.726,7.318,5.733,13.053c-5.841,0-11.735,0-17.759,0c0.172,2.568,1.193,4.294,3.313,5.212c1.971,0.856,4.364,1.101,5.69-0.538c1.772-2.193,3.851-1.869,6.039-1.892c0.665-0.006,1.331-0.001,2.278-0.001c-1.373,4.639-4.703,6.744-8.726,8.113C217.366,74.107,215.563,74.107,213.758,74.107z M222.018,59.014c-0.26-3.406-2.649-5.406-6.045-5.201c-2.998,0.183-5.144,2.396-5.078,5.201C214.602,59.014,218.305,59.014,222.018,59.014z"></path><path fill="#FFFFFF" d="M292.721,25.827c-5.979,0-11.959,0-18.043,0c0.194,2.728,1.389,4.538,3.734,5.326c2.359,0.793,4.52,0.408,6.37-1.538c0.603-0.632,1.741-0.916,2.675-1.028c1.396-0.168,2.827-0.043,4.26-0.043c-0.482,3.79-3.947,6.945-8.543,7.914c-5.492,1.159-11.104-1.438-13.479-6.239c-2.609-5.273-1.416-12.481,2.555-16.017c5.51-4.909,17.848-4.024,20.066,5.897c0.062,0.271,0.267,0.511,0.404,0.766C292.721,22.519,292.721,24.173,292.721,25.827z M286.227,21.639c-0.528-3.495-2.634-5.317-5.813-5.278c-3.129,0.04-5.238,2.032-5.546,5.278C278.607,21.639,282.342,21.639,286.227,21.639z"></path><path fill="#FFFFFF" d="M135.696,74.107c-4.311-1.409-7.741-3.729-9.166-8.36c-2.006-6.524,0.612-13.192,6.33-15.831c5.994-2.766,13.19-0.748,16.445,4.609c3.817,6.285,1.893,17.135-7.849,19.205c-0.28,0.061-0.532,0.248-0.796,0.377C139.004,74.107,137.35,74.107,135.696,74.107z M144.731,61.492c0.024-4.21-2.216-7.071-5.696-7.271c-3.59-0.207-5.866,1.58-6.664,5.236c-0.883,4.052,0.68,7.658,3.834,8.85C140.595,69.964,144.701,66.682,144.731,61.492z"></path><path fill="#FFFFFF" d="M162.318,74.107c-6.478-2.678-7.973-4.986-7.976-12.308c-0.002-4.112,0-8.225,0-12.485c2.146,0,4.048,0,6.183,0c0,4.131-0.024,8.166,0.016,12.201c0.011,1.112,0.083,2.258,0.355,3.332c0.727,2.851,2.834,4.156,5.965,3.846c2.523-0.254,4.38-2.064,4.492-4.786c0.162-3.896,0.104-7.806,0.135-11.707c0.008-0.89,0-1.779,0-2.851c2.098,0,3.996,0,6.061,0c0,7.98,0,15.979,0,24.149c-1.863,0-3.771,0-5.852,0c-0.119-0.671-0.254-1.424-0.369-2.067c-1.855,0.92-3.629,1.797-5.4,2.676C164.725,74.107,163.521,74.107,162.318,74.107z"></path><path fill="#FFFFFF" d="M189.393,74.107c-1.463-0.698-3.022-1.252-4.367-2.133c-2.02-1.322-3.361-3.18-3.424-5.988c1.687,0,3.326-0.104,4.939,0.057c0.566,0.059,1.188,0.684,1.58,1.201c1.389,1.833,4.011,2.66,6.029,1.559c0.723-0.395,1.463-1.386,1.522-2.158c0.048-0.605-0.812-1.629-1.487-1.886c-2.516-0.95-5.17-1.536-7.685-2.493c-3.851-1.465-5.416-4.961-4.013-8.524c1.457-3.705,6.103-5.655,11.566-4.858c4.307,0.631,7.11,3.574,7.381,7.881c-1.777,0-3.551,0-5.537,0c-0.824-2.633-2.918-3.505-5.555-2.91c-0.853,0.191-2.013,1.103-2.137,1.836c-0.117,0.689,0.771,1.973,1.523,2.307c1.968,0.879,4.111,1.357,6.17,2.039c4.107,1.363,5.889,3.41,5.882,6.699c-0.005,3.406-2.082,5.721-6.22,6.961c-0.27,0.082-0.506,0.273-0.76,0.414C193.001,74.107,191.195,74.107,189.393,74.107z"></path><path fill="#FFFFFF" d="M202.025,1.461c1.483,0.956,2.85,2.042,2.543,4.058c-0.258,1.702-1.28,2.861-3.039,3.122c-1.758,0.262-3.313-0.2-4.119-1.931c-0.77-1.651-0.496-3.183,0.934-4.419c0.322-0.279,0.649-0.553,0.975-0.829C200.221,1.461,201.123,1.461,202.025,1.461z"></path><path fill="#FFFFFF" d="M47.248,73.609c0-5.248-0.028-10.338,0.04-15.428c0.008-0.572,0.46-1.236,0.885-1.689c4.203-4.492,8.444-8.95,12.797-13.549c5.068,4.957,9.614,9.385,14.125,13.849c0.331,0.328,0.58,0.907,0.583,1.371c0.041,5.092,0.025,10.185,0.025,15.446C66.22,73.609,56.888,73.609,47.248,73.609z"></path><path fill="#FFFFFF" d="M97.893,42.869c1.861,0,3.705,0,5.862,0c0,4.123,0,8.203,0,12.466c4.537,0,8.771,0,13.272,0c0-4.03,0-8.118,0-12.408c2.152,0,4.045,0,6.14,0c0,10.146,0,20.304,0,30.604c-1.927,0-3.833,0-5.919,0c0-4.234,0-8.414,0-12.782c-4.48,0-8.789,0-13.375,0c0,4.192,0,8.437,0,12.798c-2.118,0-3.964,0-5.979,0C97.893,63.359,97.893,53.188,97.893,42.869z"></path><path fill="#FFFFFF" d="M103.621,23.492c0,4.551,0,8.734,0,13.032c-2.09,0-4.01,0-6.088,0c0-10.228,0-20.42,0-30.802c7.847,0,15.769,0,23.86,0c0,1.464,0,2.992,0,4.703c-5.833,0-11.596,0-17.545,0c0,2.744,0,5.313,0,8.093c4.81,0,9.591,0,14.524,0c0,1.725,0,3.246,0,4.975C113.505,23.492,108.725,23.492,103.621,23.492z"></path><path fill="#FFFFFF" d="M175.706,36.118c-2.132,0-3.988,0-6.021,0c0-7.999,0-15.994,0-24.178c1.844,0,3.748,0,5.797,0c0.127,0.632,0.265,1.326,0.33,1.653c2.256-0.745,4.439-1.954,6.699-2.118c6.072-0.441,9.834,2.941,10.271,9.331c0.342,5,0.068,10.042,0.068,15.239c-1.988,0-3.9,0-6.168,0c0-1.528,0.002-3.145,0-4.762c-0.008-3.156,0.105-6.317-0.062-9.465c-0.177-3.347-2.343-5.221-5.587-5.159c-3.168,0.061-5.125,1.894-5.241,5.224c-0.138,3.903-0.067,7.813-0.088,11.72C175.703,34.409,175.706,35.216,175.706,36.118z"></path><path fill="#FFFFFF" d="M241.811,11.892c2.156,0,4.069,0,6.117,0c0,8.063,0,16.065,0,24.198c-1.974,0-3.894,0-5.979,0c-0.078-0.708-0.157-1.424-0.24-2.175c-1.44,0.76-2.772,1.742-4.269,2.201c-6.53,2.009-12.023-1.965-12.729-9.09c-0.059-0.597-0.045-1.202-0.045-1.802c-0.004-4.353-0.002-8.705-0.002-13.263c2.091,0,4.05,0,6.24,0c0,4.526-0.047,9.018,0.016,13.509c0.051,3.706,2.068,5.787,5.443,5.79c3.193,0.002,5.279-1.868,5.378-5.086c0.118-3.906,0.055-7.817,0.069-11.727C241.813,13.64,241.811,12.833,241.811,11.892z"></path><path fill="#FFFFFF" d="M141.493,11.861c2.194,0,4.05,0,6.043,0c0,8.113,0,16.12,0,24.244c-2.031,0-3.955,0-5.928,0c-0.076-0.781-0.146-1.499-0.244-2.503c-2.962,2.401-6.038,3.603-9.701,2.694c-4.107-1.019-7.073-4.188-7.209-8.399c-0.169-5.249-0.041-10.509-0.041-15.953c1.945,0,3.84,0,6.052,0c0,2.174-0.02,4.326,0.005,6.477c0.03,2.703-0.052,5.419,0.189,8.104c0.27,3.013,2.164,4.65,5.001,4.729c3.135,0.086,5.123-1.292,5.527-4.375c0.359-2.737,0.248-5.539,0.298-8.313C141.525,16.402,141.493,14.234,141.493,11.861z"></path><path fill="#FFFFFF" d="M221.407,11.636c0,1.918,0,3.396,0,5.115c-1.765,0-3.451,0-5.359,0c0,4.197-0.097,8.159,0.089,12.108c0.033,0.724,1.096,1.673,1.898,2.015c0.908,0.388,2.059,0.21,3.281,0.289c0,1.622,0,3.214,0,4.991c-1.89,0-3.762,0.164-5.596-0.036c-3.26-0.355-5.263-2.169-5.611-5.472c-0.36-3.419-0.252-6.888-0.332-10.335c-0.026-1.107-0.004-2.216-0.004-3.403c-0.965-0.076-1.695-0.134-2.621-0.207c0-1.569,0-3.155,0-4.839c0.769-0.066,1.5-0.128,2.5-0.214c0-1.923,0-3.828,0-5.916c2.178,0,4.086,0,6.248,0c0,1.806,0,3.715,0,5.904C217.816,11.636,219.494,11.636,221.407,11.636z"></path><path fill="#FFFFFF" d="M266.734,17.595c-6.808,0.85-7.416,1.558-7.418,8.439c0,3.292,0,6.583,0,10.03c-2.051,0-3.965,0-6.064,0c0-7.932,0-15.914,0-24.104c1.896,0,3.859,0,5.994,0c0.045,0.906,0.09,1.824,0.152,3.132c2.135-2.262,4.233-3.854,7.336-3.623C266.734,13.502,266.734,15.482,266.734,17.595z"></path><path fill="#FFFFFF" d="M152.887,11.835c2.037,0,3.827,0,5.778,0c0.11,0.97,0.213,1.882,0.325,2.867c4.217-3.159,4.584-3.319,7.285-3.171c0,1.997,0,4,0,5.971c-0.201,0.104-0.323,0.218-0.451,0.226c-5.771,0.383-6.977,1.68-6.982,7.537c-0.004,3.531-0.001,7.062-0.001,10.774c-2.01,0-3.909,0-5.954,0C152.887,28.023,152.887,20.027,152.887,11.835z"></path><path fill="#FFFFFF" d="M197.748,11.907c0.5-0.061,0.863-0.139,1.229-0.142c1.496-0.014,2.992-0.006,4.672-0.006c0,8.13,0,16.165,0,24.332c-1.916,0-3.828,0-5.899,0C197.748,28.086,197.748,20.111,197.748,11.907z"></path></g></svg>